<svg xmlns="http://www.w3.org/2000/svg" xmlns:xlink="http://www.w3.org/1999/xlink" width="500" zoomAndPan="magnify" viewBox="0 0 375 374.999991" height="500" preserveAspectRatio="xMidYMid meet" version="1.0"><defs><g/><clipPath id="1bae3fe3b3"><path d="M 42.023438 128.3125 L 333.023438 128.3125 L 333.023438 196 L 42.023438 196 Z M 42.023438 128.3125 " clip-rule="nonzero"/></clipPath><clipPath id="4ea24d0d37"><path d="M 263 154 L 310 154 L 310 201.0625 L 263 201.0625 Z M 263 154 " clip-rule="nonzero"/></clipPath></defs><g clip-path="url(#1bae3fe3b3)"><path fill="#000000" d="M 332.902344 142.015625 C 332.609375 141.179688 331.679688 141.125 330.921875 141.117188 C 330.78125 141.105469 330.644531 140.921875 330.699219 140.8125 C 331.101562 139.980469 331.554688 139.171875 331.9375 138.335938 C 331.960938 138.269531 331.902344 138.121094 331.839844 138.082031 C 331.546875 137.914062 331.253906 137.730469 330.9375 137.625 C 322.390625 134.574219 313.28125 136.640625 304.910156 139.261719 C 303.734375 139.632812 302.550781 139.820312 301.320312 139.777344 C 297.28125 139.707031 293.242188 139.714844 289.203125 139.671875 C 285.894531 139.664062 282.585938 139.863281 279.285156 140.09375 C 277.675781 140.378906 276.085938 140.21875 274.507812 139.867188 C 271.085938 139.101562 267.628906 138.542969 264.1875 137.890625 C 237.441406 133.390625 210.511719 126.726562 183.214844 128.648438 C 178.175781 129.054688 173.148438 129.703125 168.1875 130.683594 C 156.496094 133.4375 145.476562 138.539062 134.269531 142.78125 C 129.167969 144.824219 124.089844 146.933594 119.011719 149.042969 C 117.734375 149.574219 116.425781 149.875 115.046875 149.898438 C 106.730469 150.167969 98.386719 149.617188 90.085938 150.046875 C 73.195312 154.042969 54.570312 164.050781 43.347656 177.449219 C 41.492188 179.152344 46.585938 186.707031 47.6875 188.425781 C 47.878906 188.878906 48.933594 189.730469 48.179688 190.117188 C 46.59375 190.855469 44.902344 191.363281 43.363281 192.207031 C 42.886719 192.460938 42.480469 192.8125 42.160156 193.25 C 41.933594 193.558594 42.027344 194.082031 42.34375 194.296875 C 42.671875 194.523438 43.035156 194.65625 43.429688 194.6875 C 55.039062 195.300781 66.695312 194.875 78.316406 195.074219 C 78.738281 195.089844 79.214844 195.070312 78.964844 194.546875 C 75.808594 190.710938 74.195312 185.855469 74.113281 180.902344 C 71.746094 152.925781 108.652344 144.53125 118.710938 170.175781 C 121.6875 178.320312 119.644531 187.664062 114.257812 194.183594 C 139.496094 194.835938 165.351562 194.203125 190.792969 194.613281 C 190.792969 194.628906 190.792969 194.640625 190.792969 194.65625 C 216.367188 194.53125 242.027344 194.902344 267.558594 194.574219 C 267.464844 193.933594 266.902344 193.652344 266.527344 193.230469 C 261.164062 187.558594 261.082031 179.050781 262.566406 171.804688 C 266.640625 150.78125 294.441406 144.585938 306.816406 162.136719 C 313.898438 171.671875 313.433594 186.09375 305.207031 194.8125 C 305.082031 194.945312 305.144531 195.214844 305.347656 195.230469 C 312.378906 195.597656 318.804688 191.535156 323.449219 186.542969 C 332.585938 175.964844 333.371094 155.5 332.902344 142.015625 Z M 89.890625 151.039062 C 80.648438 153.617188 72.132812 158.339844 64.105469 163.515625 C 62.761719 164.53125 61.199219 165.375 60.15625 166.726562 C 59.894531 167.121094 59.515625 167.332031 59.074219 167.40625 C 57 167.757812 55.027344 168.445312 53.054688 169.136719 C 52.996094 169.160156 52.902344 169.074219 52.828125 169.042969 C 60.0625 163.359375 68.355469 158.953125 76.691406 155.058594 C 80.601562 153.328125 84.554688 151.613281 88.792969 150.863281 C 89.148438 150.808594 89.507812 150.738281 89.804688 150.777344 C 89.894531 150.851562 90.066406 150.945312 89.890625 151.039062 Z M 222.28125 143.542969 C 228.320312 142.578125 234.394531 141.507812 240.527344 142.171875 C 242.726562 142.457031 245.03125 142.113281 247.183594 142.378906 C 246.335938 144.058594 238.015625 143.238281 235.707031 143.8125 C 231.566406 144.144531 227.730469 145.910156 223.65625 146.546875 C 222.6875 146.527344 222.617188 146.484375 222.335938 145.53125 C 222.183594 145.019531 222.078125 144.492188 221.957031 143.972656 C 221.925781 143.832031 222.128906 143.566406 222.28125 143.542969 Z M 221.765625 149.945312 C 218.175781 150.230469 214.589844 150.542969 210.996094 150.765625 C 195.324219 151.890625 179.652344 153.128906 163.953125 153.730469 C 163.953125 153.722656 163.953125 153.71875 163.953125 153.710938 C 161.03125 153.699219 158.113281 153.734375 155.195312 153.691406 C 154.464844 153.382812 156.378906 153.136719 156.558594 153.1875 C 170.996094 152.753906 185.359375 150.941406 199.734375 149.613281 C 203.503906 149.1875 207.28125 148.851562 211.050781 148.421875 C 214.863281 148.03125 218.660156 147.273438 222.496094 147.214844 C 223.074219 147.3125 222.847656 148.210938 222.960938 148.625 C 223.015625 149.738281 222.886719 149.863281 221.765625 149.945312 Z M 185.707031 147.644531 C 195.21875 146.527344 204.726562 145.398438 214.21875 144.148438 C 216.050781 143.921875 217.886719 143.714844 219.71875 143.460938 C 221.011719 143.179688 220.746094 144.542969 221.078125 145.398438 C 221.238281 146.300781 221.671875 146.953125 220.523438 146.996094 C 215.054688 147.515625 209.585938 148.015625 204.113281 148.523438 C 190.042969 149.957031 175.949219 151.148438 161.855469 152.359375 C 159.769531 152.472656 157.675781 152.480469 155.601562 152.769531 C 154.859375 152.765625 155.453125 151.382812 155.902344 151.355469 C 165.808594 149.957031 175.785156 148.976562 185.707031 147.644531 Z M 168 131.550781 C 171.128906 130.894531 174.304688 130.523438 177.472656 130.101562 C 177.847656 130.082031 178.261719 130.003906 178.621094 130.109375 C 178.625 130.324219 177.871094 130.472656 177.675781 130.582031 C 175.792969 131.1875 173.792969 131.648438 172.308594 133.046875 C 172.167969 133.179688 171.96875 133.285156 171.777344 133.1875 C 170.609375 132.585938 169.382812 132.152344 168.109375 131.839844 C 167.984375 131.816406 167.835938 131.617188 168 131.550781 Z M 155.875 142.40625 C 160.082031 139.53125 164.394531 136.796875 168.542969 133.832031 C 168.867188 133.589844 169.207031 133.4375 169.714844 133.484375 C 170.101562 133.625 170.707031 133.359375 171.085938 133.890625 C 170.960938 134.410156 170.503906 134.644531 170.136719 134.9375 C 166.261719 138.03125 162.488281 141.265625 158.085938 143.597656 C 157.976562 143.660156 157.765625 143.699219 157.6875 143.636719 C 157.136719 143.214844 156.515625 142.96875 155.863281 142.769531 C 155.742188 142.710938 155.8125 142.464844 155.875 142.40625 Z M 151.203125 145.546875 C 152.410156 144.0625 154.8125 142.792969 156.714844 143.40625 C 157.582031 143.734375 157.492188 144.789062 157.703125 145.539062 C 157.730469 146.085938 157.03125 145.988281 156.664062 146.023438 C 155.839844 146.03125 155.015625 146.027344 154.191406 146.027344 C 154.191406 146.039062 154.191406 146.054688 154.191406 146.066406 C 153.273438 146.097656 152.351562 146.167969 151.433594 146.160156 C 151.050781 146.183594 151.0625 145.808594 151.203125 145.546875 Z M 144.015625 152.746094 C 143.957031 152.746094 143.910156 152.664062 143.855469 152.621094 C 145.347656 152.347656 146.957031 152.40625 148.492188 152.253906 C 148.597656 152.261719 148.800781 152.339844 148.855469 152.4375 C 148.929688 153.1875 144.742188 152.800781 144.015625 152.746094 Z M 145.867188 163.410156 C 170.675781 158.382812 196.167969 156.195312 221.386719 153.546875 C 221.859375 153.757812 221.273438 154.351562 221.171875 154.667969 C 220.957031 155.105469 220.445312 155.105469 220.023438 155.148438 C 200.988281 156.886719 181.929688 158.476562 163.003906 161.207031 C 157.289062 161.910156 151.601562 162.917969 145.867188 163.410156 Z M 219.210938 158.496094 C 219.011719 158.796875 218.851562 159.132812 218.492188 159.28125 C 218.441406 158.863281 218.777344 158.652344 219 158.378906 C 219.113281 158.199219 219.265625 158.355469 219.210938 158.496094 Z M 218.453125 159.316406 C 218.222656 159.960938 218.0625 160.167969 217.605469 160.410156 C 217.679688 159.9375 218.015625 159.453125 218.453125 159.316406 Z M 217.558594 160.480469 C 217.472656 160.992188 217.234375 161.394531 216.734375 161.601562 C 216.828125 161.09375 217.09375 160.714844 217.558594 160.480469 Z M 216.695312 161.65625 C 216.621094 162.183594 216.375 162.578125 215.859375 162.777344 C 215.960938 162.269531 216.175781 161.851562 216.695312 161.65625 Z M 215.808594 163.070312 C 214.929688 164.222656 214.046875 165.367188 213.15625 166.507812 C 213.117188 166.558594 213.011719 166.558594 212.925781 166.570312 C 212.929688 166.484375 212.917969 166.382812 212.960938 166.324219 C 213.796875 165.210938 214.636719 164.101562 215.488281 163 C 215.558594 162.910156 215.703125 162.878906 215.824219 162.828125 C 215.828125 162.914062 215.851562 163.015625 215.808594 163.070312 Z M 212.644531 167.207031 C 212.550781 167.3125 212.488281 167.328125 212.425781 167.203125 C 212.40625 166.976562 212.65625 166.648438 212.898438 166.605469 C 212.945312 166.859375 212.804688 167.03125 212.644531 167.207031 Z M 211.9375 167.980469 C 211.925781 168.347656 211.671875 168.550781 211.402344 168.742188 C 211.058594 168.667969 211.839844 167.699219 211.9375 167.980469 Z M 206.835938 176.882812 C 206.5 177.328125 205.320312 177.277344 204.773438 177.390625 C 200.550781 177.722656 196.371094 178.402344 192.160156 178.8125 C 183.25 179.746094 174.382812 181.210938 165.445312 181.828125 C 177.488281 179.585938 189.816406 178.226562 201.964844 176.324219 C 203.40625 176.113281 204.851562 175.898438 206.292969 175.695312 C 207.082031 175.519531 207.117188 176.359375 206.835938 176.882812 Z M 248.417969 157.945312 C 243.445312 163.503906 238.21875 169.046875 231.964844 173.175781 C 228.878906 175.238281 225.050781 174.894531 221.527344 175.414062 C 217.523438 175.890625 213.519531 176.386719 209.511719 176.847656 C 209.109375 176.839844 208.378906 177.089844 208.238281 176.546875 C 208.28125 175.929688 208.417969 175.171875 209.183594 175.140625 C 215.183594 174.527344 221.207031 174.238281 227.226562 173.875 C 232.152344 173.386719 236.988281 167.945312 240.726562 164.851562 C 243.285156 162.523438 245.757812 160.113281 248.214844 157.683594 C 248.421875 157.476562 248.523438 157.804688 248.417969 157.945312 Z M 254.789062 151.085938 C 254.734375 152.066406 253.703125 151.765625 253.042969 151.925781 C 248.84375 152.375 244.636719 152.734375 240.429688 153.152344 C 234.828125 153.710938 229.226562 154.304688 223.613281 154.769531 C 223.339844 154.792969 223.210938 154.582031 223.308594 154.277344 C 223.4375 153.195312 224.417969 153.34375 225.25 153.203125 C 231.382812 152.578125 237.527344 152.082031 243.660156 151.441406 C 246.78125 151.132812 250.296875 150.847656 253.351562 150.507812 C 254.152344 150.582031 254.925781 150.203125 254.789062 151.085938 Z M 309 141.070312 C 289.421875 141.347656 269.789062 142.511719 250.425781 145.507812 C 241.855469 146.710938 233.5 149.265625 224.847656 149.835938 C 224.078125 149.789062 224.40625 148.75 224.300781 148.234375 C 224.292969 148.234375 224.285156 148.234375 224.277344 148.234375 C 224.296875 147.8125 224.121094 147.082031 224.664062 146.964844 C 226.851562 146.507812 229.09375 146.355469 231.304688 146.03125 C 236.890625 145.269531 242.492188 144.582031 248.101562 144.011719 C 268.296875 141.605469 288.835938 138.921875 309.152344 140.972656 C 309.105469 141.007812 309.054688 141.066406 309 141.070312 Z M 329.457031 147.121094 C 329.523438 148.449219 327.5625 149.078125 327.085938 147.746094 C 326.839844 146.90625 326.9375 146.007812 326.921875 145.144531 C 326.921875 145.144531 326.925781 145.144531 326.925781 145.144531 C 327.015625 144.25 326.609375 142.832031 327.519531 142.292969 C 328.179688 141.921875 329.097656 142.144531 329.308594 142.914062 C 329.632812 144.28125 329.394531 145.722656 329.457031 147.121094 Z M 332.515625 146.628906 C 332.511719 148.921875 330.007812 148.980469 329.777344 146.800781 C 329.753906 146.265625 329.773438 145.730469 329.773438 145.195312 C 329.792969 145.195312 329.8125 145.195312 329.832031 145.195312 C 329.816406 144.273438 329.757812 143.335938 330.082031 142.453125 C 330.476562 141.390625 332.195312 141.558594 332.371094 142.699219 C 332.625 143.992188 332.570312 145.320312 332.515625 146.628906 Z M 332.515625 146.628906 " fill-opacity="1" fill-rule="nonzero"/></g><g clip-path="url(#4ea24d0d37)"><path fill="#000000" d="M 308.734375 173.039062 C 304.226562 149.308594 271.378906 147.289062 264.832031 170.792969 C 260.742188 185.039062 272.226562 201.621094 287.414062 201.046875 C 301.347656 200.886719 311.757812 186.394531 308.734375 173.039062 Z M 302.234375 185.765625 C 290.804688 206.59375 260.765625 190.882812 270.054688 169.574219 C 273.515625 161.578125 283.011719 156.964844 291.363281 159.691406 C 302.382812 162.722656 307.863281 175.945312 302.234375 185.765625 Z M 302.234375 185.765625 " fill-opacity="1" fill-rule="nonzero"/></g><path fill="#000000" d="M 117.746094 176.21875 C 114.582031 150.886719 79.242188 149.984375 75.4375 175.496094 C 74.304688 182.839844 77.234375 190.507812 82.902344 195.273438 C 97.558594 207.828125 120.066406 195.382812 117.746094 176.21875 Z M 101.289062 195.40625 C 90.027344 199.003906 77.855469 188.996094 78.210938 177.378906 C 78.105469 168.921875 84.878906 161.183594 93.164062 159.871094 C 115.636719 156.441406 123.488281 188.574219 101.289062 195.40625 Z M 101.289062 195.40625 " fill-opacity="1" fill-rule="nonzero"/><path fill="#000000" d="M 302.617188 181.320312 C 299.1875 181.109375 296.207031 181.75 292.875 181.765625 C 291.59375 181.832031 290.5 182.886719 290.265625 184.128906 C 289.660156 187.433594 289.128906 190.75 288.617188 194.074219 C 288.609375 194.742188 290.019531 194.210938 290.421875 194.207031 C 296.46875 192.785156 301.183594 187.914062 302.765625 181.953125 C 302.816406 181.757812 302.839844 181.40625 302.617188 181.320312 Z M 302.617188 181.320312 " fill-opacity="1" fill-rule="nonzero"/><path fill="#000000" d="M 286.207031 191.515625 C 285.378906 189.335938 284.535156 187.164062 283.699219 184.988281 C 283.203125 183.6875 282.152344 182.367188 280.59375 182.75 C 277.609375 183.382812 274.574219 183.8125 271.609375 184.53125 C 271.019531 184.636719 271.21875 185.140625 271.46875 185.539062 C 274.492188 191.023438 280.671875 194.75 286.902344 194.625 C 287.136719 194.621094 287.257812 194.460938 287.1875 194.257812 C 286.863281 193.34375 286.550781 192.421875 286.207031 191.515625 Z M 286.207031 191.515625 " fill-opacity="1" fill-rule="nonzero"/><path fill="#000000" d="M 279.804688 175.832031 C 280.113281 175.582031 280.160156 175.246094 280.035156 174.90625 C 278.601562 171.554688 276.875 168.316406 275.140625 165.117188 C 274.769531 164.296875 274.246094 165.082031 273.847656 165.476562 C 270.9375 168.796875 269.5625 172.84375 269.421875 177.28125 C 269.351562 178.671875 269.71875 180.988281 270.222656 182.433594 C 270.363281 182.917969 270.570312 182.996094 270.9375 182.734375 C 273.308594 180.953125 275.640625 179.113281 277.992188 177.300781 C 278.605469 176.824219 279.203125 176.324219 279.804688 175.832031 Z M 279.804688 175.832031 " fill-opacity="1" fill-rule="nonzero"/><path fill="#000000" d="M 295.992188 162.933594 C 295.074219 162.226562 295.21875 163.414062 295 164.015625 C 294.492188 166.789062 293.902344 169.542969 293.375 172.3125 C 293.339844 173.136719 292.8125 174.527344 293.628906 175.066406 C 296.417969 176.730469 299.402344 178.0625 302.253906 179.617188 C 302.769531 179.859375 303.328125 180.328125 303.359375 179.355469 C 304.210938 172.964844 301.382812 166.503906 295.992188 162.933594 Z M 295.992188 162.933594 " fill-opacity="1" fill-rule="nonzero"/><path fill="#000000" d="M 276.472656 163.570312 C 279.289062 165.734375 282.277344 167.667969 285.144531 169.757812 C 285.644531 170.097656 286.390625 170.703125 286.972656 170.207031 C 289.128906 167.761719 291.289062 165.3125 293.289062 162.734375 C 293.488281 162.4375 294.164062 162.046875 293.675781 161.707031 C 288.445312 158.957031 281.382812 159.5 276.511719 163.074219 C 276.328125 163.199219 276.300781 163.433594 276.472656 163.570312 Z M 276.472656 163.570312 " fill-opacity="1" fill-rule="nonzero"/><path fill="#000000" d="M 281.652344 175.140625 C 278.613281 183.21875 291.453125 186.296875 292.078125 177.429688 C 292.277344 171.746094 284.113281 169.269531 281.652344 175.140625 Z M 286.644531 180 C 283.425781 180.15625 282.878906 174.707031 286.585938 174.550781 C 289.890625 174.558594 290.265625 179.859375 286.644531 180 Z M 286.644531 180 " fill-opacity="1" fill-rule="nonzero"/><path fill="#000000" d="M 104.824219 179.464844 C 106.898438 181.296875 108.921875 183.183594 110.96875 185.050781 C 111.238281 185.238281 111.566406 185.792969 111.902344 185.421875 C 115.050781 179.5625 113.941406 171.988281 109.789062 167.128906 C 109.703125 167.03125 109.507812 167.050781 109.40625 167.164062 C 107.609375 169.453125 106.078125 171.949219 104.363281 174.300781 C 103.292969 175.738281 103.398438 178.285156 104.824219 179.464844 Z M 104.824219 179.464844 " fill-opacity="1" fill-rule="nonzero"/><path fill="#000000" d="M 92.160156 189.761719 C 92.046875 187.574219 91.90625 185.390625 91.574219 183.222656 C 91.421875 181.863281 89.828125 181.847656 88.792969 181.558594 C 85.84375 180.941406 82.898438 180.328125 79.925781 179.84375 C 79.058594 179.71875 80.003906 182.441406 80.113281 182.890625 C 81.980469 188.476562 86.570312 192.960938 92.222656 194.574219 C 92.296875 194.535156 92.425781 194.472656 92.425781 194.414062 C 92.378906 192.863281 92.269531 191.3125 92.199219 189.757812 C 92.1875 189.761719 92.171875 189.761719 92.160156 189.761719 Z M 92.160156 189.761719 " fill-opacity="1" fill-rule="nonzero"/><path fill="#000000" d="M 108.3125 165.941406 C 109.273438 165.578125 105.570312 163.261719 105.179688 162.976562 C 101.441406 160.679688 96.824219 159.917969 92.566406 161.179688 C 89.621094 161.828125 90.664062 162.078125 91.976562 164.082031 C 100.433594 175.46875 96.078125 171.847656 108.3125 165.941406 Z M 108.3125 165.941406 " fill-opacity="1" fill-rule="nonzero"/><path fill="#000000" d="M 88.875 175.390625 C 91.117188 174.429688 90.953125 174.664062 90.703125 172.285156 C 90.304688 169.105469 89.953125 165.902344 89.304688 162.765625 C 89.214844 162.394531 88.503906 162.902344 88.277344 162.953125 C 83.097656 165.816406 79.628906 170.988281 79.328125 177.03125 C 79.378906 177.382812 79.121094 178.296875 79.730469 178.320312 C 82.820312 177.519531 85.863281 176.460938 88.875 175.390625 Z M 88.875 175.390625 " fill-opacity="1" fill-rule="nonzero"/><path fill="#000000" d="M 110.636719 186.800781 C 107.503906 185.800781 104.347656 184.753906 101.121094 184.117188 C 99.675781 184.140625 98.121094 185.910156 97.46875 187.160156 C 96.273438 189.65625 94.847656 192.039062 93.722656 194.570312 C 93.65625 194.710938 93.742188 194.894531 93.875 194.910156 C 97.65625 195.535156 101.28125 194.613281 104.433594 193.019531 C 105.492188 192.820312 112.003906 187.546875 110.636719 186.800781 Z M 110.636719 186.800781 " fill-opacity="1" fill-rule="nonzero"/><path fill="#000000" d="M 97.210938 183.734375 C 103.445312 182.609375 103.785156 173.703125 97.496094 172.429688 C 91.460938 171.332031 88.136719 179.960938 93.464844 182.882812 C 94.589844 183.492188 95.917969 184.03125 97.210938 183.734375 Z M 93.253906 178.035156 C 93.253906 173.855469 99.605469 173.820312 99.613281 177.871094 C 99.617188 182.375 93.191406 182.195312 93.253906 178.035156 Z M 93.253906 178.035156 " fill-opacity="1" fill-rule="nonzero"/><g fill="#111b1e" fill-opacity="1"><g transform="translate(147.635941, 227.998319)"><g><path d="M 3.125 0 C 2.226562 0 1.484375 -0.296875 0.890625 -0.890625 C 0.296875 -1.484375 0 -2.226562 0 -3.125 L 0 -12.203125 C 0 -13.097656 0.296875 -13.84375 0.890625 -14.4375 C 1.484375 -15.03125 2.226562 -15.328125 3.125 -15.328125 L 21.15625 -15.328125 C 21.351562 -15.328125 21.453125 -15.222656 21.453125 -15.015625 L 21.453125 -12.5625 C 21.453125 -12.363281 21.351562 -12.265625 21.15625 -12.265625 L 3.671875 -12.265625 C 3.515625 -12.265625 3.375 -12.203125 3.25 -12.078125 C 3.125 -11.953125 3.0625 -11.8125 3.0625 -11.65625 L 3.0625 -3.671875 C 3.0625 -3.515625 3.125 -3.375 3.25 -3.25 C 3.375 -3.125 3.515625 -3.0625 3.671875 -3.0625 L 21.15625 -3.0625 C 21.351562 -3.0625 21.453125 -2.960938 21.453125 -2.765625 L 21.453125 -0.3125 C 21.453125 -0.101562 21.351562 0 21.15625 0 Z M 3.125 0 "/></g></g></g><g fill="#111b1e" fill-opacity="1"><g transform="translate(175.227244, 227.998319)"><g><path d="M 0.3125 0 C 0.101562 0 0 -0.101562 0 -0.3125 L 0 -12.203125 C 0 -13.097656 0.296875 -13.84375 0.890625 -14.4375 C 1.484375 -15.03125 2.226562 -15.328125 3.125 -15.328125 L 18.328125 -15.328125 C 19.234375 -15.328125 19.976562 -15.03125 20.5625 -14.4375 C 21.15625 -13.84375 21.453125 -13.097656 21.453125 -12.203125 L 21.453125 -0.3125 C 21.453125 -0.101562 21.351562 0 21.15625 0 L 18.703125 0 C 18.492188 0 18.390625 -0.101562 18.390625 -0.3125 L 18.390625 -6.125 L 3.0625 -6.125 L 3.0625 -0.3125 C 3.0625 -0.101562 2.960938 0 2.765625 0 Z M 3.0625 -9.203125 L 18.390625 -9.203125 L 18.390625 -11.65625 C 18.390625 -11.8125 18.328125 -11.953125 18.203125 -12.078125 C 18.085938 -12.203125 17.945312 -12.265625 17.78125 -12.265625 L 3.671875 -12.265625 C 3.515625 -12.265625 3.375 -12.203125 3.25 -12.078125 C 3.125 -11.953125 3.0625 -11.8125 3.0625 -11.65625 Z M 3.0625 -9.203125 "/></g></g></g><g fill="#111b1e" fill-opacity="1"><g transform="translate(202.818547, 227.998319)"><g><path d="M 0.3125 0 C 0.101562 0 0 -0.101562 0 -0.3125 L 0 -15.015625 C 0 -15.222656 0.101562 -15.328125 0.3125 -15.328125 L 18.328125 -15.328125 C 19.234375 -15.328125 19.976562 -15.03125 20.5625 -14.4375 C 21.15625 -13.84375 21.453125 -13.097656 21.453125 -12.203125 L 21.453125 -9.265625 C 21.453125 -8.359375 21.15625 -7.609375 20.5625 -7.015625 C 19.976562 -6.421875 19.234375 -6.125 18.328125 -6.125 L 18.03125 -6.125 L 20.171875 0 L 16.796875 0 L 14.65625 -6.125 L 3.0625 -6.125 L 3.0625 -0.3125 C 3.0625 -0.101562 2.960938 0 2.765625 0 Z M 3.0625 -9.203125 L 17.78125 -9.203125 C 17.945312 -9.203125 18.085938 -9.257812 18.203125 -9.375 C 18.328125 -9.5 18.390625 -9.644531 18.390625 -9.8125 L 18.390625 -11.65625 C 18.390625 -11.8125 18.328125 -11.953125 18.203125 -12.078125 C 18.085938 -12.203125 17.945312 -12.265625 17.78125 -12.265625 L 3.0625 -12.265625 Z M 3.0625 -9.203125 "/></g></g></g><g fill="#111b1e" fill-opacity="1"><g transform="translate(64.862006, 270.822678)"><g><path d="M 3.125 0 C 2.226562 0 1.484375 -0.296875 0.890625 -0.890625 C 0.296875 -1.484375 0 -2.226562 0 -3.125 L 0 -12.203125 C 0 -13.097656 0.296875 -13.84375 0.890625 -14.4375 C 1.484375 -15.03125 2.226562 -15.328125 3.125 -15.328125 L 21.15625 -15.328125 C 21.351562 -15.328125 21.453125 -15.222656 21.453125 -15.015625 L 21.453125 -12.5625 C 21.453125 -12.363281 21.351562 -12.265625 21.15625 -12.265625 L 3.671875 -12.265625 C 3.515625 -12.265625 3.375 -12.203125 3.25 -12.078125 C 3.125 -11.953125 3.0625 -11.8125 3.0625 -11.65625 L 3.0625 -3.671875 C 3.0625 -3.515625 3.125 -3.375 3.25 -3.25 C 3.375 -3.125 3.515625 -3.0625 3.671875 -3.0625 L 21.15625 -3.0625 C 21.351562 -3.0625 21.453125 -2.960938 21.453125 -2.765625 L 21.453125 -0.3125 C 21.453125 -0.101562 21.351562 0 21.15625 0 Z M 3.125 0 "/></g></g></g><g fill="#111b1e" fill-opacity="1"><g transform="translate(92.453309, 270.822678)"><g><path d="M 3.125 0 C 2.226562 0 1.484375 -0.296875 0.890625 -0.890625 C 0.296875 -1.484375 0 -2.226562 0 -3.125 L 0 -12.203125 C 0 -13.097656 0.296875 -13.84375 0.890625 -14.4375 C 1.484375 -15.03125 2.226562 -15.328125 3.125 -15.328125 L 18.328125 -15.328125 C 19.234375 -15.328125 19.976562 -15.03125 20.5625 -14.4375 C 21.15625 -13.84375 21.453125 -13.097656 21.453125 -12.203125 L 21.453125 -3.125 C 21.453125 -2.226562 21.15625 -1.484375 20.5625 -0.890625 C 19.976562 -0.296875 19.234375 0 18.328125 0 Z M 3.671875 -3.0625 L 17.78125 -3.0625 C 17.945312 -3.0625 18.085938 -3.125 18.203125 -3.25 C 18.328125 -3.375 18.390625 -3.515625 18.390625 -3.671875 L 18.390625 -11.65625 C 18.390625 -11.8125 18.328125 -11.953125 18.203125 -12.078125 C 18.085938 -12.203125 17.945312 -12.265625 17.78125 -12.265625 L 3.671875 -12.265625 C 3.515625 -12.265625 3.375 -12.203125 3.25 -12.078125 C 3.125 -11.953125 3.0625 -11.8125 3.0625 -11.65625 L 3.0625 -3.671875 C 3.0625 -3.515625 3.125 -3.375 3.25 -3.25 C 3.375 -3.125 3.515625 -3.0625 3.671875 -3.0625 Z M 3.671875 -3.0625 "/></g></g></g><g fill="#111b1e" fill-opacity="1"><g transform="translate(120.044612, 270.822678)"><g><path d="M 3.125 0 C 2.226562 0 1.484375 -0.296875 0.890625 -0.890625 C 0.296875 -1.484375 0 -2.226562 0 -3.125 L 0 -15.015625 C 0 -15.222656 0.101562 -15.328125 0.3125 -15.328125 L 2.765625 -15.328125 C 2.960938 -15.328125 3.0625 -15.222656 3.0625 -15.015625 L 3.0625 -3.671875 C 3.0625 -3.515625 3.125 -3.375 3.25 -3.25 C 3.375 -3.125 3.515625 -3.0625 3.671875 -3.0625 L 21.15625 -3.0625 C 21.351562 -3.0625 21.453125 -2.960938 21.453125 -2.765625 L 21.453125 -0.3125 C 21.453125 -0.101562 21.351562 0 21.15625 0 Z M 3.125 0 "/></g></g></g><g fill="#111b1e" fill-opacity="1"><g transform="translate(147.635915, 270.822678)"><g><path d="M 3.125 0 C 2.226562 0 1.484375 -0.296875 0.890625 -0.890625 C 0.296875 -1.484375 0 -2.226562 0 -3.125 L 0 -15.015625 C 0 -15.222656 0.101562 -15.328125 0.3125 -15.328125 L 2.765625 -15.328125 C 2.960938 -15.328125 3.0625 -15.222656 3.0625 -15.015625 L 3.0625 -3.671875 C 3.0625 -3.515625 3.125 -3.375 3.25 -3.25 C 3.375 -3.125 3.515625 -3.0625 3.671875 -3.0625 L 21.15625 -3.0625 C 21.351562 -3.0625 21.453125 -2.960938 21.453125 -2.765625 L 21.453125 -0.3125 C 21.453125 -0.101562 21.351562 0 21.15625 0 Z M 3.125 0 "/></g></g></g><g fill="#111b1e" fill-opacity="1"><g transform="translate(175.227218, 270.822678)"><g><path d="M 3.125 0 C 2.226562 0 1.484375 -0.296875 0.890625 -0.890625 C 0.296875 -1.484375 0 -2.226562 0 -3.125 L 0 -12.203125 C 0 -13.097656 0.296875 -13.84375 0.890625 -14.4375 C 1.484375 -15.03125 2.226562 -15.328125 3.125 -15.328125 L 21.15625 -15.328125 C 21.351562 -15.328125 21.453125 -15.222656 21.453125 -15.015625 L 21.453125 -12.5625 C 21.453125 -12.363281 21.351562 -12.265625 21.15625 -12.265625 L 3.671875 -12.265625 C 3.515625 -12.265625 3.375 -12.203125 3.25 -12.078125 C 3.125 -11.953125 3.0625 -11.8125 3.0625 -11.65625 L 3.0625 -9.203125 L 19.6875 -9.203125 C 19.925781 -9.203125 20.046875 -9.097656 20.046875 -8.890625 L 20.046875 -6.4375 C 20.046875 -6.226562 19.925781 -6.125 19.6875 -6.125 L 3.0625 -6.125 L 3.0625 -3.671875 C 3.0625 -3.515625 3.125 -3.375 3.25 -3.25 C 3.375 -3.125 3.515625 -3.0625 3.671875 -3.0625 L 21.15625 -3.0625 C 21.351562 -3.0625 21.453125 -2.960938 21.453125 -2.765625 L 21.453125 -0.3125 C 21.453125 -0.101562 21.351562 0 21.15625 0 Z M 3.125 0 "/></g></g></g><g fill="#111b1e" fill-opacity="1"><g transform="translate(202.818521, 270.822678)"><g><path d="M 3.125 0 C 2.226562 0 1.484375 -0.296875 0.890625 -0.890625 C 0.296875 -1.484375 0 -2.226562 0 -3.125 L 0 -12.203125 C 0 -13.097656 0.296875 -13.84375 0.890625 -14.4375 C 1.484375 -15.03125 2.226562 -15.328125 3.125 -15.328125 L 21.15625 -15.328125 C 21.351562 -15.328125 21.453125 -15.222656 21.453125 -15.015625 L 21.453125 -12.5625 C 21.453125 -12.363281 21.351562 -12.265625 21.15625 -12.265625 L 3.671875 -12.265625 C 3.515625 -12.265625 3.375 -12.203125 3.25 -12.078125 C 3.125 -11.953125 3.0625 -11.8125 3.0625 -11.65625 L 3.0625 -3.671875 C 3.0625 -3.515625 3.125 -3.375 3.25 -3.25 C 3.375 -3.125 3.515625 -3.0625 3.671875 -3.0625 L 21.15625 -3.0625 C 21.351562 -3.0625 21.453125 -2.960938 21.453125 -2.765625 L 21.453125 -0.3125 C 21.453125 -0.101562 21.351562 0 21.15625 0 Z M 3.125 0 "/></g></g></g><g fill="#111b1e" fill-opacity="1"><g transform="translate(230.409825, 270.822678)"><g><path d="M 9.5 0 C 9.300781 0 9.203125 -0.101562 9.203125 -0.3125 L 9.203125 -12.265625 L 0.3125 -12.265625 C 0.101562 -12.265625 0 -12.363281 0 -12.5625 L 0 -15.015625 C 0 -15.222656 0.101562 -15.328125 0.3125 -15.328125 L 21.15625 -15.328125 C 21.351562 -15.328125 21.453125 -15.222656 21.453125 -15.015625 L 21.453125 -12.5625 C 21.453125 -12.363281 21.351562 -12.265625 21.15625 -12.265625 L 12.265625 -12.265625 L 12.265625 -0.3125 C 12.265625 -0.101562 12.160156 0 11.953125 0 Z M 9.5 0 "/></g></g></g><g fill="#111b1e" fill-opacity="1"><g transform="translate(258.001128, 270.822678)"><g><path d="M 3.125 0 C 2.226562 0 1.484375 -0.296875 0.890625 -0.890625 C 0.296875 -1.484375 0 -2.226562 0 -3.125 L 0 -12.203125 C 0 -13.097656 0.296875 -13.84375 0.890625 -14.4375 C 1.484375 -15.03125 2.226562 -15.328125 3.125 -15.328125 L 18.328125 -15.328125 C 19.234375 -15.328125 19.976562 -15.03125 20.5625 -14.4375 C 21.15625 -13.84375 21.453125 -13.097656 21.453125 -12.203125 L 21.453125 -3.125 C 21.453125 -2.226562 21.15625 -1.484375 20.5625 -0.890625 C 19.976562 -0.296875 19.234375 0 18.328125 0 Z M 3.671875 -3.0625 L 17.78125 -3.0625 C 17.945312 -3.0625 18.085938 -3.125 18.203125 -3.25 C 18.328125 -3.375 18.390625 -3.515625 18.390625 -3.671875 L 18.390625 -11.65625 C 18.390625 -11.8125 18.328125 -11.953125 18.203125 -12.078125 C 18.085938 -12.203125 17.945312 -12.265625 17.78125 -12.265625 L 3.671875 -12.265625 C 3.515625 -12.265625 3.375 -12.203125 3.25 -12.078125 C 3.125 -11.953125 3.0625 -11.8125 3.0625 -11.65625 L 3.0625 -3.671875 C 3.0625 -3.515625 3.125 -3.375 3.25 -3.25 C 3.375 -3.125 3.515625 -3.0625 3.671875 -3.0625 Z M 3.671875 -3.0625 "/></g></g></g><g fill="#111b1e" fill-opacity="1"><g transform="translate(285.592431, 270.822678)"><g><path d="M 0.3125 0 C 0.101562 0 0 -0.101562 0 -0.3125 L 0 -15.015625 C 0 -15.222656 0.101562 -15.328125 0.3125 -15.328125 L 18.328125 -15.328125 C 19.234375 -15.328125 19.976562 -15.03125 20.5625 -14.4375 C 21.15625 -13.84375 21.453125 -13.097656 21.453125 -12.203125 L 21.453125 -9.265625 C 21.453125 -8.359375 21.15625 -7.609375 20.5625 -7.015625 C 19.976562 -6.421875 19.234375 -6.125 18.328125 -6.125 L 18.03125 -6.125 L 20.171875 0 L 16.796875 0 L 14.65625 -6.125 L 3.0625 -6.125 L 3.0625 -0.3125 C 3.0625 -0.101562 2.960938 0 2.765625 0 Z M 3.0625 -9.203125 L 17.78125 -9.203125 C 17.945312 -9.203125 18.085938 -9.257812 18.203125 -9.375 C 18.328125 -9.5 18.390625 -9.644531 18.390625 -9.8125 L 18.390625 -11.65625 C 18.390625 -11.8125 18.328125 -11.953125 18.203125 -12.078125 C 18.085938 -12.203125 17.945312 -12.265625 17.78125 -12.265625 L 3.0625 -12.265625 Z M 3.0625 -9.203125 "/></g></g></g></svg>